<svg xmlns="http://www.w3.org/2000/svg" width="40" zoomAndPan="magnify" viewBox="0 0 30 30" height="40" preserveAspectRatio="xMidYMid meet" xmlns:v="https://vecta.io/nano"><defs><clipPath id="A"><path d="M.484.336h29.031v28.305H.484zm0 0" clip-rule="nonzero"/></clipPath></defs><g clip-path="url(#A)"><path fill="#cca44d" d="M1.555 17.961c.039-.023.113-.055.203-.008l11.461 5.695.051.023.051.016c.027.004.039.008.055.008.027.004.039.004.051.004l.082-.004c.027-.004.047-.008.063-.016.035-.008.055-.016.074-.027l.066-.035.004-.004 15.59-10.695c.223-.152.277-.457.125-.676s-.453-.281-.676-.129L13.398 22.648l-5.707-2.832-5.262-2.617c-.602-.297-.973-.898-.973-1.566v-2.488c0-.102.063-.152.098-.176s.113-.055.203-.008l11.461 5.695.059.023c.004.004.012.004.02.008s.023.008.039.008c.008.004.016.004.023.004s.023.004.035.008h.023.035c.012 0 .027-.004.039-.004s.02 0 .027-.004c.016-.004.027-.004.043-.008.008-.004.016-.004.023-.008.016-.004.031-.012.043-.016l.023-.012c.02-.008.039-.02.059-.035L29.305 7.926l.047-.035.039-.043c.023-.023.031-.035.039-.051l.035-.055.023-.051.016-.059c.008-.031.008-.051.012-.07v-.055c0-.031-.004-.047-.004-.062l-.016-.066-.023-.055c-.012-.027-.016-.039-.023-.047s-.008-.012-.012-.02c-.012-.016-.016-.023-.023-.031l-.047-.055c-.016-.016-.031-.027-.047-.039l-.047-.031L17.086.395c-.164-.09-.363-.078-.516.031L.691 11.629c-.02.012-.031.023-.043.031l-.047.047-.039.051c-.016.027-.023.039-.027.055-.016.027-.02.043-.027.059-.008.023-.012.043-.016.063-.004.027-.004.043-.008.055v.035 3.609c0 .57.172 1.105.484 1.551-.305.223-.484.574-.484.953v2.488c0 1.039.578 1.973 1.512 2.438l11.223 5.578c.07.035.145.051.219.051a.47.47 0 0 0 .273-.086L29.305 17.91c.223-.152.277-.457.125-.676s-.453-.281-.676-.129L13.398 27.641 2.43 22.191c-.602-.297-.973-.898-.973-1.566v-2.488c0-.098.063-.152.098-.176"/></g></svg>