<svg xmlns="http://www.w3.org/2000/svg" width="40" zoomAndPan="magnify" viewBox="0 0 30 30" height="40" preserveAspectRatio="xMidYMid meet" xmlns:v="https://vecta.io/nano"><defs><clipPath id="A"><path d="M.484 0h29.031v29.031H.484zm0 0" clip-rule="nonzero"/></clipPath></defs><g clip-path="url(#A)"><path fill="#cca44d" d="M25.266 4.25C22.523 1.512 18.879 0 15 0S7.477 1.512 4.734 4.25.484 10.641.484 14.516s1.508 7.523 4.25 10.266 6.387 4.25 10.266 4.25 7.523-1.508 10.266-4.25 4.25-6.387 4.25-10.266-1.508-7.523-4.25-10.266zM2.09 14.516a12.87 12.87 0 0 1 .844-4.59h5.223a29.07 29.07 0 0 0-.355 4.59c0 1.531.113 3.027.332 4.445H2.879a12.81 12.81 0 0 1-.789-4.445zm7.316 0c0-1.594.129-3.145.375-4.59h4.414v9.035H9.758c-.234-1.406-.352-2.902-.352-4.445zm9.391-9.355c.441.941.805 2.008 1.09 3.16h-4.082V1.754c1.086.398 2.145 1.59 2.992 3.406zm-4.602-3.406V8.32h-4.082c.285-1.152.648-2.219 1.09-3.16.848-1.816 1.906-3.008 2.992-3.406zm0 18.813v6.711c-1.086-.398-2.145-1.59-2.992-3.402-.457-.984-.836-2.102-1.125-3.309zm1.609 6.711v-6.711h4.117c-.289 1.207-.668 2.324-1.125 3.309-.848 1.813-1.906 3.004-2.992 3.402zm0-8.316V9.926h4.414c.246 1.445.375 2.996.375 4.59 0 1.543-.117 3.039-.352 4.445zm6.039-9.035h5.223a12.87 12.87 0 0 1 .844 4.59 12.81 12.81 0 0 1-.789 4.445h-5.254c.219-1.418.332-2.914.332-4.445a29.07 29.07 0 0 0-.355-4.59zm4.48-1.605h-4.789c-.32-1.402-.75-2.699-1.285-3.84-.41-.887-.871-1.648-1.371-2.281 3.195 1.012 5.855 3.23 7.445 6.121zM11.121 2.199c-.5.633-.961 1.395-1.371 2.281-.535 1.141-.965 2.438-1.285 3.84H3.676c1.59-2.891 4.25-5.109 7.445-6.121zM3.598 20.566h4.836c.32 1.457.766 2.805 1.316 3.984.41.887.871 1.648 1.371 2.281-3.246-1.027-5.945-3.305-7.523-6.266zm15.281 6.266c.5-.633.961-1.395 1.371-2.281.551-1.18.996-2.527 1.316-3.984h4.836c-1.578 2.961-4.277 5.238-7.523 6.266zm0 0"/></g></svg>